<?xml version="1.0" standalone="no"?>
<!DOCTYPE svg PUBLIC "-//W3C//DTD SVG 20010904//EN"
 "http://www.w3.org/TR/2001/REC-SVG-20010904/DTD/svg10.dtd">
<svg version="1.0" xmlns="http://www.w3.org/2000/svg"
 width="500.000000pt" height="500.000000pt" viewBox="0 0 500.000000 500.000000"
 preserveAspectRatio="xMidYMid meet">
<metadata>
Created by potrace 1.11, written by Peter Selinger 2001-2013
</metadata>
<g transform="translate(0.000000,500.000000) scale(0.100000,-0.100000)"
fill="#000000" stroke="none">
<path d="M986 4608 c-121 -433 -167 -732 -146 -942 29 -290 114 -469 320 -676
102 -102 332 -281 345 -268 2 2 -16 71 -40 153 -24 83 -68 260 -99 395 -109
468 -150 620 -230 835 -17 45 59 -84 113 -193 58 -115 137 -306 162 -389 7
-24 15 -43 19 -43 4 0 12 24 19 53 16 70 72 207 117 281 l35 60 -38 75 c-91
180 -184 299 -416 529 -141 141 -155 152 -161 130z"/>
<path d="M1743 4033 c-124 -165 -220 -346 -269 -508 -25 -81 -28 -104 -27
-240 0 -91 7 -189 17 -250 18 -105 79 -302 118 -379 l23 -45 0 237 c0 275 14
394 75 627 34 130 81 271 66 195 -14 -72 -37 -280 -51 -480 -9 -124 -23 -285
-31 -358 -7 -74 -14 -141 -14 -150 0 -22 54 31 146 144 98 120 164 232 198
334 23 71 27 99 27 199 0 136 -17 229 -71 394 -34 101 -142 347 -152 347 -2 0
-27 -30 -55 -67z"/>
<path d="M2200 2795 l-395 -395 -3 65 -3 65 -164 0 -165 0 0 -232 0 -232 -222
-223 -222 -223 157 0 157 0 0 -810 0 -810 465 0 465 0 0 525 0 525 325 0 325
0 0 -525 0 -525 450 0 450 0 0 810 0 810 170 2 170 3 -782 783 -783 782 -395
-395z"/>
</g>
</svg>
